<svg xmlns="http://www.w3.org/2000/svg" xmlns:xlink="http://www.w3.org/1999/xlink" width="496" height="446" viewBox="0 0 496 446">
  <defs>
    <filter id="Rectangle_1345" x="0" y="204" width="496" height="242" filterUnits="userSpaceOnUse">
      <feOffset dy="3" input="SourceAlpha"/>
      <feGaussianBlur stdDeviation="3" result="blur"/>
      <feFlood flood-opacity="0.161"/>
      <feComposite operator="in" in2="blur"/>
      <feComposite in="SourceGraphic"/>
    </filter>
    <filter id="Rectangle_1349" x="0" y="10" width="496" height="162" filterUnits="userSpaceOnUse">
      <feOffset dy="3" input="SourceAlpha"/>
      <feGaussianBlur stdDeviation="3" result="blur-2"/>
      <feFlood flood-opacity="0.161"/>
      <feComposite operator="in" in2="blur-2"/>
      <feComposite in="SourceGraphic"/>
    </filter>
  </defs>
  <g id="Group_1296" data-name="Group 1296" transform="translate(-10219 989)">
    <g id="Group_1208" data-name="Group 1208" transform="translate(0 36)">
      <g transform="matrix(1, 0, 0, 1, 10219, -1025)" filter="url(#Rectangle_1345)">
        <path id="Rectangle_1345-2" data-name="Rectangle 1345" d="M10,0H468a10,10,0,0,1,10,10V159a65,65,0,0,1-65,65H65A65,65,0,0,1,0,159V10A10,10,0,0,1,10,0Z" transform="translate(9 210)" fill="#fff"/>
      </g>
      <rect id="Rectangle_1346" data-name="Rectangle 1346" width="65" height="224" transform="translate(10291 -815)" fill="#ffa525"/>
      <rect id="Rectangle_1347" data-name="Rectangle 1347" width="65" height="224" transform="translate(10579 -815)" fill="#ffa525"/>
      <path id="Rectangle_1348" data-name="Rectangle 1348" d="M0,0H97a0,0,0,0,1,0,0V62A33,33,0,0,1,64,95H33A33,33,0,0,1,0,62V0A0,0,0,0,1,0,0Z" transform="translate(10419 -815)" fill="#ffa525"/>
    </g>
    <g id="Group_1207" data-name="Group 1207">
      <g transform="matrix(1, 0, 0, 1, 10219, -989)" filter="url(#Rectangle_1349)">
        <path id="Rectangle_1349-2" data-name="Rectangle 1349" d="M65,0H413a65,65,0,0,1,65,65v69a10,10,0,0,1-10,10H10A10,10,0,0,1,0,134V65A65,65,0,0,1,65,0Z" transform="translate(9 16)" fill="#fff"/>
      </g>
      <path id="Rectangle_1350" data-name="Rectangle 1350" d="M20,0H45A20,20,0,0,1,65,20V160a0,0,0,0,1,0,0H0a0,0,0,0,1,0,0V20A20,20,0,0,1,20,0Z" transform="translate(10579 -989)" fill="#ffa525"/>
      <path id="Rectangle_1351" data-name="Rectangle 1351" d="M20,0H45A20,20,0,0,1,65,20V160a0,0,0,0,1,0,0H0a0,0,0,0,1,0,0V20A20,20,0,0,1,20,0Z" transform="translate(10291 -989)" fill="#ffa525"/>
    </g>
    <g id="Group_1221" data-name="Group 1221" transform="translate(0 36)">
      <path id="Path_3990" data-name="Path 3990" d="M483.818-112.958l.026,152.069s-2.979,24.9-18.529,39.6a74.761,74.761,0,0,1-22.192,14.537,67.6,67.6,0,0,1-21.478,4.657l-352.8.063s-1.158-.012-2.914-.159c-1.034-.086-2.583-.3-4.841-.543-.622-.067-3.3-.671-4.185-.813A29.665,29.665,0,0,1,51.7,95.122c-.514-.214-3.435-1.164-4.763-1.7A72.165,72.165,0,0,1,39,89.7a74.872,74.872,0,0,1-12.132-8.865S29.648,82.557,483.818-112.958Z" transform="translate(10222.149 -689)" fill="rgba(255,157,0,0.27)"/>
    </g>
  </g>
</svg>
