<svg xmlns="http://www.w3.org/2000/svg" width="28.316" height="15.009" viewBox="0 0 28.316 15.009">
  <g id="Group_1283" data-name="Group 1283" transform="translate(6961.586 981)">
    <g id="noun_Right_Arrow_2725116" data-name="noun_Right Arrow_2725116" transform="translate(-6961.586 -981)">
      <g id="Group_1283-2" data-name="Group 1283" transform="translate(0 0)">
        <path id="Path_3914" data-name="Path 3914" d="M9.181,286.867a.657.657,0,0,0-.509,1l4.056,6.492-3.877,6.211c-.036.044-.08.09-.112.136a1.025,1.025,0,0,0-.112.2.68.68,0,0,0-.053.189.69.69,0,0,0,0,.165,1.443,1.443,0,0,0,.063.223.657.657,0,0,0,1.155.068l.16-.262c.011-.012.012-.012.024-.025.162-.178.433-.442.776-.752a30.988,30.988,0,0,1,2.829-2.237c2.29-1.612,5.219-3.169,7.39-3.261a.657.657,0,0,0,.306-1.223L9.56,286.953a.657.657,0,0,0-.378-.087Zm2.023,2.572,8.084,4.726a19.727,19.727,0,0,0-6.468,3.042c-.251.177-.386.32-.621.495l1.863-2.989a.657.657,0,0,0,0-.694Z" transform="translate(6.72 -286.861)" fill="#fff"/>
        <path id="Path_3915" data-name="Path 3915" d="M3.1,286.864a.657.657,0,0,0-.136,1.305c6.281,1.291,12.3,2.75,16.25,6.691a.657.657,0,0,0,1.033-.791L16.3,287.2a.657.657,0,0,0-.568-.335Zm5.119,1.315h7.133l2.513,4.377A28.188,28.188,0,0,0,8.218,288.178Z" transform="translate(-2.413 -286.863)" fill="#fff"/>
      </g>
    </g>
    <path id="Path_3916" data-name="Path 3916" d="M-9.042-19.245l-4.07-6.341L-3.5-19.614-11.672-15.5Z" transform="translate(-6931.735 -954.047)" fill="#fff"/>
    <path id="Path_3917" data-name="Path 3917" d="M-35.515-17.618l9.811.2,2.495,4.685-5.107-2.322Z" transform="translate(-6922.779 -962.544)" fill="#fff"/>
  </g>
</svg>
